<svg xmlns="http://www.w3.org/2000/svg" xmlns:xlink="http://www.w3.org/1999/xlink" width="700" zoomAndPan="magnify" viewBox="0 0 525 374.999991" height="500" preserveAspectRatio="xMidYMid meet" version="1.0"><defs><filter x="0%" y="0%" width="100%" height="100%" id="e00ba06db4"><feColorMatrix values="0 0 0 0 1 0 0 0 0 1 0 0 0 0 1 0 0 0 1 0" color-interpolation-filters="sRGB"/></filter><g/><mask id="57a5689b66"><g filter="url(#e00ba06db4)"><rect x="-52.5" width="630" fill="#000000" y="-37.499999" height="449.999989" fill-opacity="0.98"/></g></mask><clipPath id="545fe46621"><path d="M 0.960938 16 L 475.199219 16 L 475.199219 207 L 0.960938 207 Z M 0.960938 16 " clip-rule="nonzero"/></clipPath><clipPath id="7f97c2b460"><rect x="0" width="476" y="0" height="237"/></clipPath></defs><g fill="#eeddcc" fill-opacity="1"><g transform="translate(139.596527, 187.571049)"><g><path d="M 84.382812 -80.390625 C 82.308594 -95.21875 69.195312 -103.710938 52.800781 -101.417969 C 27.964844 -97.941406 16.867188 -76.230469 20.460938 -50.554688 C 20.644531 -49.226562 21.898438 -48.171875 23.347656 -48.375 C 24.792969 -48.578125 25.710938 -49.9375 25.523438 -51.261719 C 22.421875 -73.445312 31.585938 -93.164062 52.320312 -96.0625 C 66.425781 -98.039062 77.480469 -92.824219 79.320312 -79.683594 C 81.207031 -66.179688 74.070312 -50.433594 60.207031 -48.492188 C 57.070312 -48.054688 53.59375 -48.304688 50.050781 -49.039062 C 49.671875 -49.109375 49.429688 -49.074219 49.066406 -49.023438 C 47.863281 -48.855469 46.773438 -47.84375 46.996094 -46.277344 C 47.144531 -45.191406 47.882812 -44.3125 49.019531 -44.101562 C 52.960938 -43.175781 56.816406 -42.855469 60.550781 -43.378906 C 77.550781 -45.757812 86.777344 -63.273438 84.382812 -80.390625 Z M 52.316406 -82.050781 C 53.40625 -84.785156 55.691406 -88.667969 58.773438 -89.46875 C 59.824219 -89.863281 61.035156 -90.890625 60.523438 -92.785156 C 60.234375 -93.976562 58.789062 -94.632812 57.585938 -94.464844 C 53.847656 -93.941406 49.167969 -88.738281 47.535156 -83.71875 C 44.980469 -76.476562 43.402344 -65.808594 41.679688 -54.382812 C 37.640625 -27.023438 33.957031 -2.414062 17.800781 -0.15625 C 11.050781 0.789062 4.777344 -2.757812 3.746094 -10.113281 C 2.769531 -17.105469 7.390625 -25.371094 14.019531 -26.296875 C 14.746094 -26.398438 15.46875 -26.5 16.105469 -26.34375 C 17.738281 -26.082031 19.257812 -27.523438 19.023438 -29.210938 C 18.703125 -31.5 16.085938 -31.75 13.554688 -31.394531 C 4.03125 -30.0625 -2.765625 -19.769531 -1.28125 -9.164062 C 0.0859375 0.601562 8.503906 6.308594 18.390625 4.925781 C 39.605469 1.957031 43.210938 -29.398438 46.808594 -53.746094 C 48.339844 -64.777344 49.953125 -75.207031 52.316406 -82.050781 Z M 52.316406 -82.050781 "/></g></g></g><g fill="#eeddcc" fill-opacity="1"><g transform="translate(227.720676, 175.243029)"><g><path d="M 39.628906 -34.796875 C 38.234375 -35.09375 36.871094 -34.289062 36.4375 -33 C 31.863281 -16.503906 25.125 -8.429688 15.207031 -7.289062 C 7.9375 -6.519531 3.488281 -10.199219 2.769531 -17.105469 C 2.535156 -19.652344 2.578125 -21.992188 2.984375 -25.246094 C 15.910156 -30.375 32.792969 -40.601562 31.003906 -53.378906 C 30.195312 -59.167969 25.539062 -61.710938 19.507812 -60.867188 C 5.285156 -58.878906 -3.746094 -32.046875 -2.308594 -16.515625 C -1.167969 -6.597656 5.785156 -0.808594 15.792969 -2.210938 C 27.96875 -3.914062 36.019531 -13.152344 41.425781 -31.609375 C 41.496094 -31.984375 41.582031 -32.242188 41.53125 -32.605469 C 41.398438 -33.570312 40.660156 -34.449219 39.628906 -34.796875 Z M 4.101562 -31.304688 C 6.660156 -41.125 11.898438 -54.640625 20.21875 -55.804688 C 22.871094 -56.175781 25.484375 -55.925781 25.941406 -52.671875 C 27.191406 -43.75 13.667969 -35.835938 4.101562 -31.304688 Z M 4.101562 -31.304688 "/></g></g></g><g fill="#eeddcc" fill-opacity="1"><g transform="translate(265.935934, 169.896953)"><g><path d="M 53.25 -36.703125 C 52.871094 -36.773438 52.492188 -36.84375 52.253906 -36.808594 C 51.289062 -36.675781 50.40625 -35.9375 50.042969 -35.027344 C 46.113281 -21.816406 41.726562 -11 33.046875 -9.785156 C 30.273438 -9.398438 28.886719 -11.414062 28.480469 -14.308594 C 28.042969 -17.445312 29.21875 -24.859375 30.25 -30.660156 C 30.863281 -34.1875 39.476562 -77.183594 40.191406 -80.847656 C 40.488281 -82.242188 39.359375 -84.171875 37.308594 -83.886719 C 36.34375 -83.75 35.464844 -83.011719 35.238281 -81.996094 L 31.429688 -62.660156 L 30.015625 -56.070312 C 27.5625 -59.535156 23.730469 -61.457031 18.304688 -60.699219 C 3.714844 -58.660156 -4.390625 -28.761719 -2.183594 -12.96875 C -1.171875 -5.734375 2.773438 -0.386719 9.523438 -1.332031 C 15.671875 -2.191406 19.972656 -7.464844 23.351562 -14.082031 C 24.292969 -7.332031 28.089844 -3.929688 33.753906 -4.722656 C 44.847656 -6.273438 50.164062 -17.464844 55.046875 -33.511719 C 55.117188 -33.890625 55.1875 -34.269531 55.136719 -34.632812 C 55.003906 -35.597656 54.28125 -36.355469 53.25 -36.703125 Z M 8.695312 -6.378906 C 5.078125 -5.871094 3.503906 -9.21875 2.761719 -14.523438 C 1.332031 -26.492188 7.972656 -53.722656 19.011719 -55.636719 C 23.714844 -56.292969 26.941406 -53.425781 27.960938 -47.914062 C 27.992188 -47.675781 28.027344 -47.433594 27.957031 -47.054688 C 27.382812 -45.007812 26.875 -42.476562 26.144531 -39.792969 C 23.042969 -26.824219 18.460938 -7.746094 8.695312 -6.378906 Z M 8.695312 -6.378906 "/></g></g></g><g fill="#eeddcc" fill-opacity="1"><g transform="translate(317.773673, 162.645175)"><g><path d="M 45.777344 -35.65625 C 45.398438 -35.726562 45.019531 -35.796875 44.65625 -35.746094 C 43.691406 -35.613281 42.933594 -34.890625 42.585938 -33.859375 C 37.890625 -17.347656 34.253906 -9.953125 28.347656 -9.128906 C 25.695312 -8.757812 24.441406 -10.671875 24.019531 -13.683594 C 23.855469 -15.75 23.808594 -17.835938 24.179688 -20.46875 C 24.480469 -23.582031 27.855469 -41.632812 28.867188 -45.828125 C 29.144531 -47.34375 28.324219 -48.828125 26.929688 -49.125 C 25.535156 -49.417969 23.902344 -49.683594 22.144531 -49.929688 C 18.480469 -50.644531 14.195312 -51.398438 10.585938 -52.613281 C 11.375 -57.519531 11.703125 -58.671875 11.433594 -60.597656 C 10.761719 -65.421875 7.667969 -68.183594 3.328125 -67.578125 C -0.527344 -67.039062 -3.621094 -63.65625 -2.929688 -58.710938 C -2.304688 -54.253906 0.664062 -51.472656 4.636719 -49.445312 L 3.695312 -45.628906 L -3.015625 -23.300781 C -3.082031 -22.921875 -3.152344 -22.542969 -3.101562 -22.183594 C -2.96875 -21.21875 -2.246094 -20.457031 -1.335938 -20.09375 C -0.957031 -20.023438 -0.578125 -19.953125 -0.0976562 -20.023438 C 0.746094 -20.140625 1.523438 -20.738281 1.871094 -21.773438 C 8.5625 -44.21875 9.171875 -46.023438 9.453125 -47.539062 C 12.289062 -46.582031 13.683594 -46.285156 23.265625 -44.554688 C 22.554688 -41.75 19.492188 -24.972656 19.066406 -20.980469 C 18.644531 -17.851562 18.621094 -15.386719 18.957031 -12.976562 C 19.785156 -7.070312 23.265625 -3.253906 28.933594 -4.046875 L 29.054688 -4.066406 C 37.25 -5.210938 42.25 -13.410156 47.574219 -32.46875 C 47.644531 -32.847656 47.714844 -33.226562 47.664062 -33.585938 C 47.527344 -34.550781 46.808594 -35.308594 45.777344 -35.65625 Z M 6.355469 -60.011719 C 6.523438 -58.804688 6.105469 -56.535156 5.738281 -54.761719 C 3.726562 -55.957031 2.335938 -57.972656 2.066406 -59.902344 C 1.882812 -61.230469 2.46875 -62.296875 4.039062 -62.515625 C 5.003906 -62.648438 6.066406 -62.0625 6.355469 -60.011719 Z M 6.355469 -60.011719 "/></g></g></g><g fill="#eeddcc" fill-opacity="1"><g transform="translate(362.137129, 156.439004)"><g><path d="M 49.996094 -36.246094 C 49.617188 -36.316406 49.238281 -36.386719 48.875 -36.335938 C 47.910156 -36.203125 47.152344 -35.480469 46.804688 -34.449219 L 46.734375 -34.070312 C 44.003906 -24.59375 40.039062 -10.765625 32.566406 -9.71875 C 30.035156 -9.363281 28.746094 -10.660156 28.238281 -14.277344 C 27.5 -19.578125 30.007812 -30.625 32.644531 -43.410156 L 36.414062 -60.40625 C 36.8125 -61.9375 35.578125 -63.730469 33.652344 -63.460938 C 32.566406 -63.308594 31.6875 -62.570312 31.460938 -61.558594 C 31.074219 -59.90625 30.605469 -57.996094 30.167969 -55.84375 C 27.390625 -59.882812 23.367188 -61.40625 18.304688 -60.699219 C 3.835938 -58.675781 -4.390625 -28.761719 -2.183594 -12.96875 C -1.171875 -5.734375 2.773438 -0.386719 9.523438 -1.332031 C 14.707031 -2.058594 19.300781 -6.140625 23.175781 -13.566406 C 24.003906 -7.660156 27.488281 -3.84375 33.273438 -4.65625 C 44.125 -6.171875 48.558594 -21.910156 51.722656 -32.679688 L 51.792969 -33.058594 C 51.863281 -33.4375 51.933594 -33.816406 51.882812 -34.175781 C 51.746094 -35.140625 51.027344 -35.902344 49.996094 -36.246094 Z M 8.695312 -6.378906 C 5.078125 -5.871094 3.503906 -9.21875 2.761719 -14.523438 C 1.332031 -26.492188 7.953125 -53.84375 19.011719 -55.636719 C 23.351562 -56.242188 26.941406 -53.425781 27.960938 -47.914062 L 26.144531 -39.792969 C 23.042969 -26.824219 18.460938 -7.746094 8.695312 -6.378906 Z M 8.695312 -6.378906 "/></g></g></g><path stroke-linecap="butt" transform="matrix(0.742936, -0.103932, 0.103932, 0.742936, -5.994685, 68.432852)" fill="none" stroke-linejoin="miter" d="M 289.29195 86.435327 C 289.287811 66.50747 273.522286 52.881907 251.455157 52.881215 C 218.057688 52.878093 199.400776 79.464986 199.399635 114.051009 C 199.397448 115.833116 200.826377 117.457894 202.808776 117.456553 C 204.749199 117.454597 206.212134 115.829518 206.21432 114.047411 C 206.212962 84.177336 221.940395 59.851619 249.833226 59.852323 C 268.845741 59.851579 282.473051 68.766678 282.477264 86.438925 C 282.473382 104.62005 270.114216 124.11179 251.45443 124.109299 C 247.258397 124.11118 242.701591 123.121435 238.144408 121.495436 C 237.666763 121.339233 237.351576 121.337203 236.878073 121.339315 C 235.253559 121.338144 233.625762 122.487983 233.626703 124.586 C 233.626546 126.05292 234.421251 127.362886 235.885127 127.835823 C 240.918939 129.775619 245.947512 130.926003 250.979369 130.925375 C 273.877164 130.9266 289.28971 109.490716 289.29195 86.435327 Z M 247.255075 78.356845 C 249.198855 74.948268 252.923885 70.232552 257.159783 69.757782 C 258.624191 69.400053 260.408967 68.293205 260.054522 65.677786 C 259.892943 64.051536 258.112783 62.945472 256.488269 62.944301 C 251.456412 62.944928 244.326234 68.924636 241.236285 75.264491 C 236.517983 84.336723 232.480567 98.125863 228.08444 112.900619 C 217.703759 148.279713 208.311276 180.090261 186.564492 180.09232 C 177.489761 180.089965 169.845034 174.22535 169.847307 164.361929 C 169.846428 154.934469 177.489805 144.872847 186.407664 144.86903 C 187.353947 144.869963 188.347365 144.872231 189.139182 145.188058 C 191.279658 145.860805 193.53644 144.236366 193.537129 141.938779 C 193.538457 138.847345 190.131753 138.055297 186.72441 138.057095 C 173.88445 138.059052 163.033227 150.379712 163.030592 164.680714 C 163.031133 177.793885 173.092598 186.904181 186.405339 186.90527 C 214.966087 186.90477 225.505765 146.179646 234.738624 114.683271 C 238.815904 100.421243 242.860882 86.95389 247.255075 78.356845 Z M 340.399152 138.37133 C 338.615947 137.738048 336.674885 138.53385 335.843047 140.157832 C 326.770293 161.113571 316.392164 170.503436 303.081453 170.18716 C 293.335678 169.8701 288.145117 164.164783 288.463675 154.934487 C 288.61947 151.52816 289.0943 148.434613 290.244152 144.236707 C 308.268154 139.838813 332.434074 129.459664 332.436408 112.266799 C 332.434357 104.463852 326.770245 100.264387 318.646954 100.263686 C 299.513666 100.263308 282.636101 134.013202 281.645569 154.774613 C 281.329293 168.085324 289.451965 176.998006 302.9223 177.000109 C 319.284498 177.001911 331.644168 166.301379 342.179775 142.931871 C 342.341135 142.454948 342.496216 142.098077 342.499982 141.620139 C 342.498403 140.31597 341.70824 139.048702 340.399152 138.37133 Z M 292.860754 136.432044 C 298.050039 123.955514 307.435827 107.076343 318.650552 107.078372 C 322.215488 107.077588 325.622192 107.869636 325.622444 112.26524 C 325.620497 124.268654 306.329929 132.232958 292.860754 136.432044 Z M 410.180944 138.374787 C 409.667201 138.213534 409.189556 138.057331 408.874369 138.055301 C 407.565042 138.056159 406.255077 138.850864 405.621418 139.997816 C 397.977498 156.715808 390.215146 170.183651 378.526919 170.183735 C 374.803667 170.188661 373.33706 167.254664 373.338306 163.37454 C 373.337761 159.131373 376.266687 149.582731 378.686125 142.097504 C 380.148758 137.580562 399.441316 82.395725 401.06833 77.680949 C 401.743589 75.898359 400.59054 73.165962 397.820172 73.162229 C 396.552823 73.163702 395.242857 73.958407 394.728957 75.264074 L 386.132788 100.066883 L 383.0806 108.504648 C 380.466584 103.512049 375.752979 100.260522 368.465512 100.261075 C 348.811588 100.261472 332.607535 138.21723 332.607482 159.490511 C 332.611381 169.197061 336.809464 176.998126 345.921016 177.000374 C 354.159923 177.001475 360.81895 170.819151 366.523966 162.736727 C 366.521611 171.811459 370.880007 177.000764 378.52536 176.997699 C 393.462615 176.999959 402.531166 163.215349 411.962288 142.93017 C 412.118491 142.452526 412.279744 141.938783 412.277632 141.46528 C 412.276774 140.155954 411.448776 139.046387 410.180944 138.374787 Z M 345.723004 170.18478 C 340.890718 170.187037 339.426298 165.470932 339.42473 158.341059 C 339.740304 142.254101 353.528089 107.551439 368.463953 107.075039 C 374.799258 107.077989 378.527811 111.432568 378.841922 118.921635 C 378.845049 119.237544 378.842298 119.557888 378.686817 120.030376 C 377.537522 122.645745 376.426145 125.892104 374.961023 129.29929 C 368.463972 145.862251 358.878152 170.184853 345.723004 170.18478 Z M 469.88943 138.372898 C 469.374965 138.216802 468.903199 138.056163 468.42454 138.057554 C 467.115213 138.058412 465.96872 138.849697 465.334046 140.154242 C 456.066157 161.11423 449.922911 170.18692 441.962371 170.187955 C 438.397434 170.188739 437.087406 167.413351 437.090388 163.370476 C 437.246559 160.600402 437.603128 157.863619 438.55277 154.457931 C 439.543906 150.379783 447.308237 127.200956 449.450247 121.811609 C 450.084545 119.87081 449.252937 117.772261 447.469733 117.138979 C 445.687142 116.463719 443.588029 115.833563 441.326779 115.159694 C 436.612003 113.532681 431.103673 111.752591 426.551272 109.491061 C 428.489487 103.153079 429.167153 101.691555 429.164821 99.114879 C 429.164351 92.616102 425.561434 88.415803 419.735731 88.415791 C 414.54628 88.415403 409.833522 92.298906 409.832978 98.955277 C 409.831951 104.938574 413.24056 109.174785 418.110744 112.584921 L 416.172685 117.455983 L 403.177554 145.665665 C 403.016301 146.179408 402.86082 146.651896 402.857053 147.129834 C 402.858633 148.434003 403.654354 149.586375 404.801305 150.220034 C 405.27895 150.376237 405.792693 150.53749 406.423789 150.536393 C 407.575522 150.534519 408.68418 149.900935 409.355674 148.596283 C 422.351712 120.192187 423.461543 117.934089 424.133382 115.988027 C 427.700567 117.775229 429.483772 118.408512 441.805377 122.487747 C 440.339241 126.052527 433.207285 147.642564 431.897571 152.832873 C 430.790711 156.8738 430.272889 160.124325 430.275703 163.374074 C 430.276738 171.334614 434.195407 176.998706 441.803218 177.000905 L 441.960812 177.001919 C 453.012786 177.002212 461.096987 167.0969 471.675931 142.929003 C 471.831413 142.456515 471.993387 141.937615 471.991275 141.464113 C 471.990417 140.154786 471.157262 139.044498 469.88943 138.372898 Z M 422.351872 98.955726 C 422.3507 100.58024 421.362127 103.512533 420.531385 105.767611 C 418.111069 103.825377 416.643741 100.896537 416.646459 98.283763 C 416.643489 96.500934 417.636155 95.230696 419.734172 95.229755 C 421.043498 95.228897 422.35117 96.179479 422.351872 98.955726 Z M 535.270461 138.375884 C 534.793538 138.214524 534.279074 138.058428 533.806293 138.055383 C 532.496966 138.056242 531.387293 138.84742 530.715078 140.157229 L 530.553718 140.634152 C 525.209991 152.673705 517.40268 170.183809 507.338967 170.185063 C 503.931624 170.186862 502.504725 168.246897 502.50824 163.373356 C 502.507393 156.238326 507.856058 142.09632 513.678407 125.733412 L 521.799638 103.987329 C 522.634228 102.043003 521.322463 99.430366 518.708968 99.432804 C 517.242047 99.432647 515.974887 100.25963 515.46088 101.528477 C 514.667359 103.667831 513.677288 106.084645 512.726549 108.859237 C 509.797771 102.997122 504.764598 100.26348 497.950633 100.261921 C 478.45946 100.264054 462.098534 138.213641 462.098481 159.486922 C 462.096502 169.197907 466.299742 176.999693 475.411294 177.001941 C 482.383573 176.999358 489.193865 172.441842 495.694276 163.371797 C 495.69459 171.337494 499.576438 177.001693 507.342565 176.999749 C 521.959475 176.999258 530.714773 157.034906 536.896324 143.403756 L 537.051806 142.931268 C 537.213166 142.454345 537.369262 141.93988 537.367871 141.461221 C 537.371448 140.157773 536.575114 139.047378 535.270461 138.375884 Z M 475.213282 170.186348 C 470.375839 170.187883 468.911419 165.471778 468.909851 158.341905 C 469.230582 142.255669 483.014225 107.394691 497.949074 107.075885 C 503.774778 107.075897 508.012932 111.433414 508.3322 118.923202 L 504.446144 129.300136 C 497.949093 145.863097 488.363273 170.185699 475.213282 170.186348 Z M 475.213282 170.186348 " stroke="#000000" stroke-width="6.085388" stroke-opacity="1" stroke-miterlimit="4"/><g mask="url(#57a5689b66)"><g transform="matrix(1, 0, 0, 1, 30, 138)"><g clip-path="url(#7f97c2b460)"><g fill="#bbdcdf" fill-opacity="1"><g transform="translate(29.565535, 177.468862)"><g><path d="M 101.105469 -47.824219 C 99.304688 -44.007812 95.53125 -42.003906 91.914062 -41.496094 C 87.332031 -40.855469 85.277344 -44.132812 84.585938 -49.078125 C 83.941406 -53.65625 84.789062 -59.921875 85.527344 -65.1875 C 87.15625 -75.496094 89.632812 -79.773438 92.042969 -80.113281 C 93.714844 -80.46875 95.105469 -79.3125 96.671875 -79.53125 C 101.734375 -80.238281 104.820312 -87.183594 103.859375 -94.917969 C 102.933594 -101.546875 98.230469 -106.175781 89.789062 -104.996094 C 76.53125 -103.140625 61.96875 -92.128906 48.265625 -56.53125 C 47.449219 -54.453125 46.617188 -52.492188 45.785156 -50.53125 C 40.800781 -53.644531 37.800781 -58.386719 36.941406 -64.535156 C 35.710938 -73.335938 40.816406 -76.386719 45.585938 -76.5625 C 47.425781 -76.574219 48.207031 -78.035156 47.832031 -79.828125 C 47.039062 -85.492188 42.148438 -90.585938 32.984375 -89.304688 C 22.738281 -87.871094 14.554688 -79.597656 16.324219 -66.9375 C 18.011719 -54.882812 27.179688 -45.59375 40.472656 -41.0625 C 35.925781 -34.035156 30.089844 -29.160156 22.617188 -28.117188 C 15.984375 -27.1875 10.296875 -30.078125 9.554688 -35.382812 C 9.4375 -36.226562 8.507812 -36.714844 7.542969 -36.578125 C -2.101562 -35.230469 -7.125 -24.570312 -5.742188 -14.683594 C -4.34375 -4.679688 3.722656 4.640625 20.238281 2.332031 C 33.257812 0.511719 43.613281 -14.214844 49.925781 -29.722656 C 51.015625 -32.457031 52.078125 -35.433594 53.167969 -38.167969 C 57.902344 -37.722656 62.945312 -37.691406 68.164062 -38.175781 C 68.082031 -34.355469 68.195312 -30.925781 68.617188 -27.914062 C 70 -18.027344 74.261719 -10.390625 82.824219 -11.585938 C 99.097656 -13.863281 104.023438 -38.398438 106.953125 -45.570312 C 107.960938 -48.042969 102.632812 -50.988281 101.105469 -47.824219 Z M 68.824219 -46.625 C 64.210938 -46.226562 60.027344 -46.253906 56.378906 -46.851562 C 59.621094 -55.292969 62.898438 -63.496094 66.84375 -70.441406 C 69.769531 -75.027344 71.097656 -76.074219 72.664062 -76.292969 C 73.507812 -76.414062 74.179688 -76.015625 74.347656 -74.808594 C 75.039062 -69.867188 71.285156 -64.179688 68.824219 -46.625 Z M 68.824219 -46.625 "/></g></g></g><g fill="#bbdcdf" fill-opacity="1"><g transform="translate(132.51351, 163.067082)"><g><path d="M 7.59375 -1.0625 C 15.914062 -2.226562 16.554688 -9.074219 15.691406 -15.222656 L 14.933594 -20.648438 C 13.433594 -31.378906 18.0625 -42.230469 25.054688 -43.207031 C 27.828125 -43.59375 29.835938 -42.402344 30.226562 -39.628906 C 30.917969 -34.683594 26.984375 -25.898438 28.265625 -16.738281 C 29.210938 -9.984375 32.671875 -4.570312 40.265625 -5.632812 C 56.542969 -7.910156 61.46875 -32.445312 64.398438 -39.613281 C 65.402344 -42.089844 60.074219 -45.03125 58.550781 -41.871094 C 56.644531 -37.914062 54.710938 -35.0625 51.09375 -34.558594 C 47.113281 -34 45.035156 -35.675781 44.460938 -39.777344 C 43.621094 -45.804688 46.9375 -50.203125 46.042969 -56.589844 C 45.199219 -62.617188 40.996094 -67.191406 33.640625 -66.164062 C 28.335938 -65.421875 23.871094 -62.214844 20.015625 -57.253906 C 16.699219 -52.855469 14.085938 -53.964844 13.425781 -58.664062 C 13.089844 -61.078125 12.0625 -63.144531 8.808594 -62.691406 C 4.347656 -62.066406 0.15625 -48.082031 -1.847656 -33.421875 C -3.238281 -23.148438 -3.230469 -14.296875 -2.4375 -8.632812 C -1.726562 -3.570312 1.929688 -0.269531 7.59375 -1.0625 Z M 7.59375 -1.0625 "/></g></g></g><g fill="#bbdcdf" fill-opacity="1"><g transform="translate(192.908053, 154.618262)"><g><path d="M 59.03125 -41.9375 C 56.246094 -36.386719 52.421875 -30.320312 48.804688 -29.8125 C 46.035156 -29.425781 43.558594 -31.292969 44.355469 -37.917969 C 47.257812 -53.195312 51.285156 -59.535156 50.660156 -63.996094 C 50.289062 -66.648438 48.953125 -68.304688 45.816406 -67.867188 C 40.152344 -67.074219 39.949219 -62.375 35.96875 -61.820312 C 32.835938 -61.382812 32.675781 -66.03125 23.03125 -64.679688 C 2.296875 -61.78125 -4.527344 -35.011719 -2.03125 -17.167969 C -0.769531 -8.128906 5.636719 -1.894531 13.953125 -3.058594 C 20.101562 -3.917969 26.25 -10.0625 28.339844 -18.835938 C 29.085938 -21.398438 31.257812 -21.703125 31.542969 -19.65625 C 33.027344 -9.046875 24.8125 4.273438 13.738281 5.945312 C 5.644531 6.953125 0.144531 3.667969 -1.300781 -2.277344 C -1.878906 -4.652344 -9.699219 1.847656 -7.976562 14.144531 C -6.359375 25.71875 1.871094 31.820312 14.648438 30.03125 C 28.394531 28.109375 36 17.457031 40.257812 -8.335938 C 41.457031 -6.78125 43.039062 -6.019531 44.847656 -6.273438 C 56.542969 -7.910156 59.945312 -23.996094 64.878906 -39.683594 C 65.816406 -42.640625 60.191406 -44.1875 59.03125 -41.9375 Z M 21.585938 -28.464844 C 17.003906 -27.824219 14.894531 -30.601562 14.40625 -34.097656 C 13.664062 -39.402344 16.816406 -45.863281 22.722656 -46.691406 C 27.425781 -47.347656 29.757812 -44.726562 30.246094 -41.230469 C 30.957031 -36.164062 27.613281 -29.304688 21.585938 -28.464844 Z M 21.585938 -28.464844 "/></g></g></g><g fill="#bbdcdf" fill-opacity="1"><g transform="translate(253.784781, 146.101987)"><g><path d="M 58.429688 -41.851562 C 56.523438 -37.898438 54.589844 -35.046875 50.972656 -34.539062 C 47.71875 -34.085938 44.535156 -35.730469 43.894531 -40.3125 C 43.050781 -46.339844 47.195312 -56.261719 46.25 -63.011719 C 45.761719 -66.507812 44.25 -67.648438 41.839844 -67.3125 C 35.691406 -66.449219 31.945312 -57.199219 29.210938 -40.714844 L 29.160156 -40.214844 C 27.953125 -33.902344 24.554688 -30.96875 20.214844 -30.359375 C 16.234375 -29.804688 14.863281 -31.703125 14.390625 -35.078125 C 13.394531 -42.191406 17.691406 -51.027344 16.59375 -58.863281 C 16.15625 -61.996094 14.835938 -63.535156 12.183594 -63.164062 C 5.429688 -62.21875 1.234375 -51.796875 -1.847656 -33.421875 C -3.164062 -25.246094 -2.410156 -18.101562 -1.902344 -14.484375 C -0.519531 -4.597656 4.203125 -0.710938 10.710938 -1.621094 C 20.117188 -2.9375 24.828125 -13.183594 27.609375 -22.300781 C 27.621094 -20.457031 27.71875 -18.875 27.9375 -17.304688 C 29.136719 -8.746094 33.03125 -4.621094 40.144531 -5.617188 C 56.421875 -7.894531 61.347656 -32.429688 64.277344 -39.597656 C 65.28125 -42.074219 59.953125 -45.015625 58.429688 -41.851562 Z M 58.429688 -41.851562 "/></g></g></g><g fill="#bbdcdf" fill-opacity="1"><g transform="translate(314.058773, 137.670031)"><g><path d="M 10.246094 -1.433594 C 26.523438 -3.710938 31.449219 -28.246094 34.378906 -35.414062 C 35.382812 -37.890625 30.054688 -40.832031 28.53125 -37.671875 C 26.539062 -33.457031 23.847656 -30.746094 19.628906 -30.15625 C 12.394531 -29.144531 12.398438 -36.152344 13.46875 -43.429688 C 14.824219 -53.945312 17.972656 -65.695312 22.734375 -80.003906 C 25.40625 -88.121094 23.195312 -91.621094 18.253906 -90.929688 C 8.488281 -89.5625 5.523438 -70.34375 -1.726562 -33.4375 C -3.175781 -26.226562 -3.804688 -18.398438 -2.941406 -12.25 C -1.949219 -5.136719 1.6875 -0.234375 10.246094 -1.433594 Z M 10.246094 -1.433594 "/></g></g></g><g fill="#bbdcdf" fill-opacity="1"><g transform="translate(344.436848, 133.420328)"><g><path d="M 12.777344 -1.789062 C 21.339844 -2.984375 27.476562 -11.832031 30.933594 -22.273438 L 31.414062 -22.339844 C 31.367188 -12.132812 35.925781 -5.027344 44.246094 -6.191406 C 57.625 -8.0625 61.625 -27.796875 65.964844 -39.835938 C 66.851562 -42.292969 61.523438 -45.234375 60.117188 -42.089844 C 58.246094 -37.894531 55.554688 -35.183594 51.453125 -34.609375 C 46.148438 -33.867188 44.148438 -38.503906 47.015625 -47.878906 C 48.691406 -55.242188 51.300781 -59.417969 50.660156 -63.996094 C 50.289062 -66.648438 48.953125 -68.304688 45.816406 -67.867188 C 40.152344 -67.074219 39.949219 -62.375 35.96875 -61.820312 C 32.835938 -61.382812 32.675781 -66.03125 23.03125 -64.679688 C 2.296875 -61.78125 -4.527344 -35.011719 -2.183594 -18.253906 C -0.683594 -7.523438 4.582031 -0.640625 12.777344 -1.789062 Z M 21.34375 -28.429688 C 17.605469 -27.90625 14.976562 -29.996094 14.40625 -34.097656 C 13.664062 -39.402344 16.816406 -45.863281 23.082031 -46.742188 C 26.941406 -47.28125 29.691406 -45.207031 30.246094 -41.230469 C 30.957031 -36.164062 27.613281 -29.304688 21.34375 -28.429688 Z M 21.34375 -28.429688 "/></g></g></g><g fill="#bbdcdf" fill-opacity="1"><g transform="translate(406.398497, 124.752279)"><g><path d="M 45.773438 -40.082031 C 43.867188 -36.128906 41.929688 -33.277344 38.3125 -32.769531 C 32.886719 -32.011719 30.484375 -34.257812 30.011719 -37.632812 C 28.96875 -45.105469 33.441406 -50.894531 32.480469 -57.765625 C 31.570312 -64.277344 18.917969 -70.375 7.585938 -68.789062 C 1.074219 -67.878906 -2.316406 -61.378906 -1.625 -56.4375 C -1.019531 -52.097656 0.765625 -50.75 3.296875 -50.242188 C 2.023438 -44.410156 -0.0117188 -36.996094 -1.847656 -33.421875 C -3.09375 -30.910156 2.871094 -27.8125 4 -31.164062 C 5.371094 -35.414062 8.203125 -44.167969 9.699219 -49.292969 C 14.773438 -48.160156 16.761719 -45.367188 16.929688 -44.160156 C 17.738281 -38.375 10.886719 -25.859375 12.453125 -14.648438 C 13.316406 -8.5 17.601562 -2.460938 27.488281 -3.84375 C 43.761719 -6.121094 48.6875 -30.65625 51.617188 -37.828125 C 52.625 -40.304688 47.296875 -43.246094 45.773438 -40.082031 Z M 45.773438 -40.082031 "/></g></g></g><g clip-path="url(#545fe46621)"><path stroke-linecap="butt" transform="matrix(0.79586, -0.111336, 0.111336, 0.79586, -35.994577, 71.664111)" fill="none" stroke-linejoin="miter" d="M 188.698378 93.50762 C 185.815579 97.870207 180.82055 99.718794 176.275239 99.721001 C 170.542717 99.719095 168.547366 95.317061 168.54306 89.102665 C 168.544866 83.335771 170.690318 75.753321 172.502485 69.395474 C 176.27281 57.00451 180.082141 52.123656 183.115782 52.121029 C 185.222342 51.973985 186.741599 53.63935 188.700097 53.638472 C 195.060934 53.639927 200.051756 45.611315 200.199593 35.923557 C 200.200171 27.604222 195.211107 21.094963 184.634232 21.092695 C 167.950889 21.095107 148.091409 32.153133 125.088716 73.644084 C 123.720949 76.088451 122.355376 78.341704 120.984415 80.633469 C 115.402561 75.94076 112.518162 69.578683 112.51495 61.847803 C 112.51582 50.789728 119.319237 47.908172 125.239757 48.495913 C 127.495402 48.791831 128.714212 47.131573 128.568788 44.873085 C 128.565927 37.736148 123.423911 30.636139 111.923821 30.637241 C 99.015176 30.637623 87.51648 39.400075 87.514675 55.341688 C 87.514614 70.463874 97.208141 83.481845 112.813119 91.363316 C 106.008392 99.236338 97.981402 104.268308 88.586924 104.269479 C 80.228404 104.268328 73.723061 99.721288 73.722171 93.026365 C 73.719849 91.990408 72.685062 91.212488 71.467619 91.213963 C 59.334402 91.214842 51.309899 103.491677 51.308883 115.919123 C 51.312407 128.489541 59.632698 141.359579 80.41385 141.361072 C 96.763107 141.361005 112.071525 125.013331 122.503161 106.967426 C 124.312867 103.784845 126.163652 100.308611 127.972685 97.130845 C 133.705734 98.497307 139.922727 99.386658 146.428882 99.71766 C 145.688411 104.414302 145.245584 108.632312 145.247714 112.441381 C 145.246698 124.868826 149.164944 134.99779 159.928118 135.001579 C 180.380671 135.001277 190.65833 105.600775 195.543118 97.277561 C 197.207956 94.393748 191.139814 89.844063 188.698378 93.50762 Z M 148.721066 89.402231 C 142.951253 89.105524 137.81317 88.32784 133.410405 86.995322 C 138.885316 77.120229 144.322714 67.583462 150.387058 59.705029 C 154.787512 54.563295 156.601288 53.491814 158.559787 53.490936 C 159.630115 53.488514 160.371622 54.117425 160.370529 55.633908 C 160.370021 61.847631 154.78797 68.208183 148.721066 89.402231 Z M 194.756987 135.000068 C 205.22112 135.001289 207.180196 126.681076 207.181797 118.950869 L 207.181954 112.143204 C 207.180548 98.64543 214.76079 86.070851 223.526954 86.070131 C 227.001936 86.070346 229.295673 87.883322 229.295458 91.358304 C 229.29495 97.572027 222.934114 107.745291 222.935216 119.245381 C 222.933692 127.711829 226.262801 134.999963 235.804392 134.999739 C 256.256945 134.999437 266.57379 105.599508 271.419393 97.275721 C 273.08423 94.391908 267.020902 89.842896 264.579467 93.506454 C 261.543218 98.053718 258.698229 101.233807 254.148104 101.23534 C 249.156638 101.234031 246.86245 98.792742 246.864707 93.654162 C 246.865361 86.071069 251.710075 81.227078 251.708758 73.20197 C 251.709412 65.618878 247.307856 59.260522 238.100351 59.2584 C 231.405428 59.25929 225.340498 62.440485 219.755078 67.877821 C 214.910464 72.756184 211.880385 70.908914 211.878424 65.028604 C 211.880612 61.995636 210.952875 59.259592 206.88395 59.259727 C 201.26417 59.258868 193.680196 75.754585 188.68875 93.506274 C 185.212752 105.933503 183.69692 116.804186 183.699781 123.941123 C 183.698326 130.30196 187.655094 134.998016 194.756987 135.000068 Z M 341.093683 93.50551 C 336.68989 99.864013 330.922839 106.669872 326.372714 106.671405 C 322.897731 106.67119 320.159283 103.932157 322.307578 95.908366 C 328.520355 77.601119 334.584103 70.463742 334.584388 64.883147 C 334.58423 61.516093 333.21655 59.258407 329.260367 59.259589 C 322.157801 59.262351 321.085666 65.031667 316.0942 65.030358 C 312.133203 65.030867 312.763997 59.258708 300.635593 59.260261 C 274.597631 59.259604 261.544223 91.064568 261.545403 113.475619 C 261.542065 124.867108 268.384822 133.633329 278.815257 133.629835 C 286.545463 133.631436 295.196474 127.121045 299.266619 116.656777 C 300.633362 113.623282 303.372102 113.623574 303.367944 116.214527 C 303.370297 129.565187 290.943738 144.539244 277.003002 144.689736 C 266.868416 144.543197 260.656002 139.551222 259.881229 131.967633 C 259.583701 128.93691 248.821317 135.593673 248.823601 151.049946 C 248.822516 165.583003 257.917152 174.531727 273.971507 174.534579 C 291.238491 174.535283 302.445147 162.737969 312.136392 131.670079 C 313.357905 133.779704 315.170091 135.000135 317.462003 135.001725 C 332.142848 134.998944 339.093312 115.769079 347.898564 97.279691 C 349.563051 93.801936 342.903739 90.916872 341.093683 93.50551 Z M 292.606059 103.640993 C 286.839165 103.639187 284.731523 99.86442 284.733183 95.466896 C 284.731719 88.811159 289.722892 81.376489 297.158871 81.376196 C 303.073552 81.374135 305.477043 84.998869 305.479524 89.401881 C 305.478068 95.762717 300.189825 103.636833 292.606059 103.640993 Z M 416.807728 93.505516 C 413.776294 98.053454 410.892119 101.232969 406.376365 101.234403 C 402.273069 101.234637 398.649644 98.646662 398.646636 92.879095 C 398.64739 85.330373 405.453854 73.796069 405.456052 65.324806 C 405.453571 60.921795 403.791341 59.26097 400.758374 59.258783 C 393.027494 59.261995 386.81547 70.020521 380.601598 89.844252 L 380.454935 90.471619 C 377.90184 98.05594 373.202987 101.050308 367.730321 101.050397 C 362.738854 101.049088 361.37307 98.497174 361.368968 94.24609 C 361.369195 85.332813 368.176185 75.163065 368.177856 65.327246 C 368.177347 61.366249 366.842418 59.260391 363.480178 59.261223 C 355.008915 59.259024 348.055015 71.391138 341.06894 93.506957 C 338.034301 103.340589 337.739273 112.291157 337.740707 116.80691 C 337.740364 129.229542 342.878086 134.851578 351.089492 134.851782 C 362.888624 134.853248 370.468269 123.019726 375.463624 112.292232 C 375.167706 114.547878 375.015983 116.509569 375.016287 118.507253 C 375.017886 129.231916 379.085005 134.998675 388.037468 134.999475 C 408.485207 134.9985 418.76768 105.598671 423.646981 97.279598 C 425.312492 94.390971 419.24849 89.846773 416.807728 93.505516 Z M 426.193532 135.002046 C 446.646085 135.001745 456.963603 105.597002 461.808533 97.278028 C 463.47337 94.394216 457.410042 89.845203 454.96928 93.503947 C 451.788163 98.349979 448.017714 101.233722 442.726532 101.234659 C 433.626956 101.232911 434.847444 92.578688 437.403305 83.816783 C 440.876957 71.055467 446.792501 57.153477 455.115185 40.324271 C 459.8122 30.782094 457.706002 26.084786 451.491606 26.089092 C 439.211948 26.084209 432.261992 49.275071 416.950028 93.50579 C 413.918729 102.122653 411.808526 111.663501 411.806925 119.393708 C 411.811612 128.34203 415.435172 134.998931 426.193532 135.002046 Z M 467.545467 135.000145 C 478.309314 134.99912 487.405748 125.164375 493.472425 112.883604 L 494.061554 112.88258 C 492.248206 125.458964 496.651441 134.998075 507.081202 134.999395 C 523.906172 135.002071 532.22834 111.370014 539.662562 97.278004 C 541.180285 94.393244 535.112143 89.843558 532.85768 93.503823 C 529.823677 98.350802 526.014042 101.233972 520.874789 101.23653 C 514.219725 101.233179 512.555014 95.169343 517.694464 84.113525 C 521.021512 75.312258 524.981923 70.61451 524.979015 64.881314 C 524.978857 61.51426 523.610503 59.261387 519.654994 59.257756 C 512.552428 59.260518 511.480293 65.029834 506.488827 65.028525 C 502.532645 65.029707 503.157951 59.261689 491.03022 59.258428 C 464.992258 59.257771 451.93885 91.062735 451.939602 112.143601 C 451.940909 125.607004 457.262819 134.999772 467.545467 135.000145 Z M 482.711273 103.637938 C 478.014034 103.638524 475.125553 100.603643 475.12781 95.465063 C 475.126346 88.809326 480.122333 81.375329 487.994839 81.377205 C 492.84468 81.373426 495.87546 84.408581 495.874151 89.400047 C 495.872695 95.760884 490.583779 103.639814 482.711273 103.637938 Z M 592.66381 93.506738 C 589.632376 98.054676 586.748201 101.234191 582.237261 101.236298 C 575.395225 101.236241 572.841104 98.056714 572.84249 93.80149 C 572.841319 84.407013 579.350725 78.048579 579.348957 69.395158 C 579.34926 61.218122 564.781881 51.533246 550.543724 51.529241 C 542.366689 51.528938 537.080615 58.966527 537.08078 65.175436 C 537.080769 70.613731 539.040146 72.571351 542.070048 73.648008 C 539.482905 80.633673 535.713742 89.40254 532.828123 93.504596 C 530.868385 96.391328 537.670874 101.235165 539.667376 97.278678 C 542.074012 92.285035 547.065751 81.969325 549.804152 75.93738 C 555.869071 78.194481 557.824785 81.967627 557.828506 83.484784 C 557.825606 90.768162 547.214495 105.009638 547.212112 119.095867 C 547.215324 126.826747 551.466105 134.999681 563.89355 135.000697 C 584.341289 134.999722 594.623762 105.599893 599.469365 97.276105 C 601.168574 94.392193 595.105246 89.843181 592.66381 93.506738 Z M 592.66381 93.506738 " stroke="#000000" stroke-width="5.680725" stroke-opacity="1" stroke-miterlimit="4"/></g></g></g></g></svg>